<svg width="142" height="50" viewBox="0 0 142 50" fill="none" xmlns="http://www.w3.org/2000/svg">
<path d="M127.764 29.1386C127.764 44.4221 89.7159 50 74.3223 50C58.9287 50 89.5996 44.4221 89.5996 29.1386C89.5996 13.8551 121.535 7 136.928 7C152.322 7 127.764 13.8551 127.764 29.1386Z" fill="#101010"/>
<path d="M2.64 39V11H12.68L18.24 35.4H18.96V11H24.16V39H14.12L8.56 14.6H7.84V39H2.64ZM39.0369 39.56C37.0635 39.56 35.2902 39.16 33.7169 38.36C32.1435 37.56 30.9035 36.4 29.9969 34.88C29.0902 33.36 28.6369 31.5333 28.6369 29.4V28.76C28.6369 26.6267 29.0902 24.8 29.9969 23.28C30.9035 21.76 32.1435 20.6 33.7169 19.8C35.2902 19 37.0635 18.6 39.0369 18.6C41.0102 18.6 42.7835 19 44.3569 19.8C45.9302 20.6 47.1702 21.76 48.0769 23.28C48.9835 24.8 49.4369 26.6267 49.4369 28.76V29.4C49.4369 31.5333 48.9835 33.36 48.0769 34.88C47.1702 36.4 45.9302 37.56 44.3569 38.36C42.7835 39.16 41.0102 39.56 39.0369 39.56ZM39.0369 35.08C40.5835 35.08 41.8635 34.5867 42.8769 33.6C43.8902 32.5867 44.3969 31.1467 44.3969 29.28V28.88C44.3969 27.0133 43.8902 25.5867 42.8769 24.6C41.8902 23.5867 40.6102 23.08 39.0369 23.08C37.4902 23.08 36.2102 23.5867 35.1969 24.6C34.1835 25.5867 33.6769 27.0133 33.6769 28.88V29.28C33.6769 31.1467 34.1835 32.5867 35.1969 33.6C36.2102 34.5867 37.4902 35.08 39.0369 35.08ZM63.4091 39.56C61.4891 39.56 59.7424 39.16 58.1691 38.36C56.6224 37.56 55.3957 36.4 54.4891 34.88C53.5824 33.36 53.1291 31.52 53.1291 29.36V28.8C53.1291 26.64 53.5824 24.8 54.4891 23.28C55.3957 21.76 56.6224 20.6 58.1691 19.8C59.7424 19 61.4891 18.6 63.4091 18.6C65.3024 18.6 66.9291 18.9333 68.2891 19.6C69.6491 20.2667 70.7424 21.1867 71.5691 22.36C72.4224 23.5067 72.9824 24.8133 73.2491 26.28L68.3691 27.32C68.2624 26.52 68.0224 25.8 67.6491 25.16C67.2757 24.52 66.7424 24.0133 66.0491 23.64C65.3824 23.2667 64.5424 23.08 63.5291 23.08C62.5157 23.08 61.5957 23.3067 60.7691 23.76C59.9691 24.1867 59.3291 24.84 58.8491 25.72C58.3957 26.5733 58.1691 27.6267 58.1691 28.88V29.28C58.1691 30.5333 58.3957 31.6 58.8491 32.48C59.3291 33.3333 59.9691 33.9867 60.7691 34.44C61.5957 34.8667 62.5157 35.08 63.5291 35.08C65.0491 35.08 66.1957 34.6933 66.9691 33.92C67.7691 33.12 68.2757 32.08 68.4891 30.8L73.3691 31.96C73.0224 33.3733 72.4224 34.6667 71.5691 35.84C70.7424 36.9867 69.6491 37.8933 68.2891 38.56C66.9291 39.2267 65.3024 39.56 63.4091 39.56ZM83.8466 39V15.8H75.6866V11H97.2866V15.8H89.1266V39H83.8466ZM98.3078 39V19.16H103.268V21.4H103.988C104.281 20.6 104.761 20.0133 105.428 19.64C106.121 19.2667 106.921 19.08 107.828 19.08H110.228V23.56H107.748C106.468 23.56 105.414 23.9067 104.588 24.6C103.761 25.2667 103.348 26.3067 103.348 27.72V39H98.3078ZM119.858 39.56C118.445 39.56 117.178 39.32 116.058 38.84C114.938 38.3333 114.045 37.6133 113.378 36.68C112.738 35.72 112.418 34.56 112.418 33.2C112.418 31.84 112.738 30.7067 113.378 29.8C114.045 28.8667 114.952 28.1733 116.098 27.72C117.272 27.24 118.605 27 120.098 27H125.538V25.88C125.538 24.9467 125.245 24.1867 124.658 23.6C124.072 22.9867 123.138 22.68 121.858 22.68C120.605 22.68 119.672 22.9733 119.058 23.56C118.445 24.12 118.045 24.8533 117.858 25.76L113.218 24.2C113.538 23.1867 114.045 22.2667 114.738 21.44C115.458 20.5867 116.405 19.9067 117.578 19.4C118.778 18.8667 120.232 18.6 121.938 18.6C124.552 18.6 126.618 19.2533 128.138 20.56C129.658 21.8667 130.418 23.76 130.418 26.24V33.64C130.418 34.44 130.792 34.84 131.538 34.84H133.138V39H129.778C128.792 39 127.978 38.76 127.338 38.28C126.698 37.8 126.378 37.16 126.378 36.36V36.32H125.618C125.512 36.64 125.272 37.0667 124.898 37.6C124.525 38.1067 123.938 38.56 123.138 38.96C122.338 39.36 121.245 39.56 119.858 39.56ZM120.738 35.48C122.152 35.48 123.298 35.0933 124.178 34.32C125.085 33.52 125.538 32.4667 125.538 31.16V30.76H120.458C119.525 30.76 118.792 30.96 118.258 31.36C117.725 31.76 117.458 32.32 117.458 33.04C117.458 33.76 117.738 34.3467 118.298 34.8C118.858 35.2533 119.672 35.48 120.738 35.48Z" fill="white"/>
</svg> 