<svg width="72" height="51" viewBox="0 0 72 51" fill="none" xmlns="http://www.w3.org/2000/svg">
<path d="M57.7636 25.1386C57.7636 40.4221 19.7159 46 4.32234 46C-11.0713 46 19.5996 40.4221 19.5996 25.1386C19.5996 9.85509 51.5348 3 66.9284 3C82.322 3 57.7636 9.85509 57.7636 25.1386Z" fill="#101010"/>
<path d="M57.2636 25.1386C57.2636 28.7253 55.0366 31.8079 51.2909 34.4367C47.5485 37.0631 42.3717 39.1745 36.6767 40.8203C25.2911 44.1106 11.9781 45.5 4.32234 45.5C2.38782 45.5 1.25347 45.4098 0.697247 45.2499C0.657621 45.2385 0.623378 45.2274 0.593936 45.2169C0.731652 45.0735 0.969237 44.8883 1.3196 44.6574C1.67481 44.4234 2.11882 44.1598 2.63886 43.8636C3.06288 43.6221 3.54828 43.3531 4.07345 43.062C4.80403 42.657 5.61155 42.2094 6.43774 41.734C9.31835 40.0765 12.7197 37.9191 15.4038 35.197C18.0896 32.4732 20.0996 29.1399 20.0996 25.1386C20.0996 21.5114 21.9895 18.344 25.1567 15.6102C28.3274 12.8733 32.7381 10.6091 37.6632 8.80756C47.5123 5.20487 59.286 3.5 66.9284 3.5C68.8497 3.5 70.0913 3.60856 70.8234 3.80699C71.1922 3.90694 71.3713 4.0145 71.4489 4.09047C71.4982 4.13878 71.5067 4.16791 71.4965 4.23278C71.4806 4.3351 71.4088 4.50585 71.2216 4.75937C71.04 5.00536 70.7797 5.28989 70.4442 5.61701C69.8701 6.17697 69.1186 6.82144 68.2501 7.56619C68.1009 7.69409 67.9483 7.82495 67.7926 7.95885C65.6845 9.77126 63.0567 12.0929 60.9581 14.9347C58.8565 17.7805 57.2636 21.1768 57.2636 25.1386ZM0.491382 45.3476C0.491047 45.3477 0.491944 45.345 0.495081 45.3392C0.493287 45.3447 0.491718 45.3476 0.491382 45.3476Z" stroke="#C8C8C8" stroke-opacity="0.5"/>
<path d="M27.64 39V11H37.68L43.24 35.4H43.96V11H49.16V39H39.12L33.56 14.6H32.84V39H27.64Z" fill="white"/>
</svg>
