<svg width="216" height="49" viewBox="0 0 216 49" fill="none" xmlns="http://www.w3.org/2000/svg">
<g clip-path="url(#clip0_2001_2546)">
<path d="M193.444 39.0004H201.248C201.551 39.9844 202.581 40.9683 204.51 40.9683C207.123 40.9683 208.023 39.3457 208.023 36.9462V35.2372H207.85C206.561 36.739 204.847 37.8438 202.321 37.8438C197.346 37.8438 193.02 34.167 193.02 26.9772C193.02 20.3916 196.576 15.256 201.94 15.256C205.029 15.256 206.915 16.4989 208.161 18.4668H208.291V15.9465H216.009V35.8759C216.009 39.5528 214.719 42.4184 212.79 44.136C210.774 45.9313 207.902 46.6563 204.64 46.6563C198.505 46.6563 194.223 44.1273 193.444 39.0004ZM208.369 26.5888C208.369 23.7232 207.002 21.4101 204.64 21.4101C202.364 21.4101 200.911 23.4643 200.911 26.5888C200.911 29.6701 202.373 31.8883 204.64 31.8883C206.993 31.8969 208.369 29.6269 208.369 26.5888ZM184.402 19.8737H184.532C186.202 16.6629 188.391 15.4718 191.177 15.4718C191.817 15.4718 192.25 15.5581 192.51 15.6876V22.7479H192.336C187.578 21.8934 184.792 24.1634 184.792 29.3335V38.9573H176.685V15.9465H184.402V19.8737ZM0 6.70251H15.868C18.8703 6.70251 21.1804 7.42753 22.8156 8.75674C24.6585 10.2499 25.6449 12.4768 25.6449 15.1266C25.6449 18.2079 24.399 20.1326 21.8293 21.3324V21.4618C25.1776 22.5753 27.1071 25.5703 27.1071 29.204C27.1071 32.6651 25.7746 35.3667 23.5943 36.9893C21.7514 38.3186 19.3548 38.9573 16.1795 38.9573H0V6.70251ZM15.0979 31.8106C17.0274 31.8106 18.4377 30.6541 18.4377 28.5135C18.4377 26.2867 16.8976 25.2164 15.0547 25.2164H8.79055V31.802H15.0979V31.8106ZM14.276 19.3213C15.9891 19.3213 17.235 18.3805 17.235 16.4989C17.235 14.6605 15.9458 13.7628 14.2327 13.7628H8.79055V19.3213H14.276Z" fill="black"/>
<path d="M28.5606 6.70251H36.8753V38.9573H28.5606V6.70251ZM38.4673 27.4864C38.4673 20.219 43.1827 15.2992 50.4764 15.2992C57.7701 15.2992 62.399 20.219 62.399 27.4864C62.399 34.8057 57.7701 39.6736 50.4764 39.6736C43.1827 39.6823 38.4673 34.8057 38.4673 27.4864ZM54.1622 27.4864C54.1622 23.4643 52.873 20.944 50.3899 20.944C47.9067 20.944 46.7041 23.4643 46.7041 27.4864C46.7041 31.5517 47.9067 34.072 50.3899 34.072C52.873 34.0806 54.1622 31.5517 54.1622 27.4864ZM63.3421 27.4864C63.3421 20.219 68.0575 15.2992 75.3512 15.2992C82.6449 15.2992 87.2738 20.219 87.2738 27.4864C87.2738 34.8057 82.6449 39.6736 75.3512 39.6736C68.0575 39.6823 63.3421 34.8057 63.3421 27.4864ZM79.037 27.4864C79.037 23.4643 77.7478 20.944 75.2647 20.944C72.7815 20.944 71.5789 23.4643 71.5789 27.4864C71.5789 31.5517 72.7815 34.072 75.2647 34.072C77.7478 34.0806 79.037 31.5517 79.037 27.4864ZM88.8571 15.9465H96.5748V19.4076H96.7046C98.2447 16.7147 100.347 15.256 103.652 15.256C106.568 15.256 108.757 16.7061 109.873 19.235H110.003C111.889 16.1968 114.338 15.256 117.167 15.256C122.531 15.256 124.841 19.1918 124.841 24.4914V38.9486H116.734V25.9501C116.734 23.5937 116.007 22.0574 113.948 22.0574C111.932 22.0574 110.903 23.939 110.903 26.4248V38.9573H102.787V25.9501C102.787 23.5937 102.06 22.0574 100.001 22.0574C97.9851 22.0574 96.9555 23.939 96.9555 26.4248V38.9573H88.8571V15.9465ZM134.739 35.9622H134.653V38.9573H126.935V6.70251H135.042V18.3374H135.172C136.712 16.3263 138.771 15.256 141.73 15.256C147.518 15.256 150.867 20.4779 150.867 27.4001C150.867 35.2286 147.224 39.7168 141.22 39.7168C138.728 39.7254 136.158 38.5257 134.739 35.9622ZM142.63 27.3224C142.63 23.6024 141.263 21.2029 138.814 21.2029C136.331 21.2029 134.739 23.6024 134.739 27.3224C134.739 30.9993 136.323 33.4419 138.814 33.4419C141.298 33.4333 142.63 31.0425 142.63 27.3224ZM151.896 27.4087C151.896 20.219 156.655 15.2215 163.559 15.2215C166.986 15.2215 169.651 16.2918 171.666 18.2165C174.323 20.78 175.525 24.8021 175.439 29.5493H159.96C160.306 32.4148 161.673 33.8735 164.122 33.8735C165.541 33.8735 166.778 33.2348 167.297 31.6898H175.101C173.734 36.9462 169.659 39.6046 163.871 39.6046C156.698 39.596 151.896 34.7625 151.896 27.4087ZM159.96 25.0093H167.332C167.202 22.23 165.662 20.7713 163.733 20.7713C161.5 20.7713 160.254 22.3595 159.96 25.0093Z" fill="black"/>
</g>
<defs>
<clipPath id="clip0_2001_2546">
<rect width="216" height="48" fill="white" transform="translate(0 0.702515)"/>
</clipPath>
</defs>
</svg>
