<svg width="206" height="49" viewBox="0 0 206 49" fill="none" xmlns="http://www.w3.org/2000/svg">
<path d="M0 3.70251H41.1C41.1 17.6854 41.1 31.7196 41.1 45.7025H0V3.70251ZM3.02357 10.3098C4.86846 18.8123 6.50836 27.4171 8.25075 35.9708C8.55823 36.9952 8.35324 38.3269 9.37818 39.044C11.1718 39.3513 13.0167 39.2489 14.8104 39.1464C15.784 39.1976 16.0403 38.0196 16.194 37.2513C17.4239 31.1562 18.7564 25.1123 19.9863 19.0171C20.0888 18.4537 20.2425 17.8903 20.4988 17.3781C22.0362 23.9342 23.3173 30.4903 24.701 37.0464C24.906 37.7635 24.9572 38.583 25.6235 39.044C27.5708 39.3001 29.5695 39.3001 31.5168 39.044C32.2343 38.6342 32.2343 37.7635 32.4393 37.0464C34.2329 28.1342 35.9241 19.1708 37.8202 10.2586C36.0778 10.2586 34.3867 10.2586 32.6443 10.2586C31.2606 18.044 30.1844 25.8293 28.647 33.5635C26.9559 27.0074 25.7772 20.2976 24.291 13.6391C23.9323 12.5123 24.086 10.8732 22.8561 10.2586C21.3187 10.1562 19.8326 10.1562 18.2951 10.2586C17.4239 10.3098 17.219 11.3342 17.0652 12.0001C15.8865 18.6586 14.4516 25.2147 13.1192 31.7708C12.9655 32.3854 12.7605 32.9489 12.5555 33.5635C11.1718 25.8293 9.89065 18.044 8.66073 10.3098C6.76459 10.3098 4.9197 10.3098 3.02357 10.3098Z" fill="black"/>
<path d="M81.8925 3.70251H122.993C122.993 17.6854 122.993 31.7196 122.993 45.7025H81.8925C81.8925 31.7196 81.8925 17.6854 81.8925 3.70251ZM91.1682 10.3098C91.1682 19.9391 91.1682 29.5171 91.1682 39.0952C93.0643 39.0952 94.9604 39.0952 96.8566 39.0952C96.8566 35.3562 96.8566 31.5659 96.8566 27.8269C99.9314 27.8269 103.057 27.8269 106.132 27.8269C107.26 27.7245 108.592 28.544 108.592 29.7732C108.746 32.8976 109.002 35.9708 109.207 39.0952C111.001 39.0952 112.846 39.0952 114.639 39.0952C114.127 35.561 114.742 31.9245 113.768 28.4928C113.256 26.7001 111.257 26.2903 109.72 25.8293C110.898 25.2147 112.384 25.1635 113.204 24.0367C114.434 22.5001 114.537 20.4513 114.537 18.5562C114.537 16.3537 114.588 13.9464 113.153 12.1025C112.026 10.5659 109.925 10.3611 108.182 10.3611C102.443 10.3098 96.8053 10.3098 91.1682 10.3098Z" fill="black"/>
<path d="M163.888 3.70251H205.5V45.7025H163.888C163.888 31.7196 163.888 17.6854 163.888 3.70251ZM173.163 10.3098C173.163 19.9391 173.163 29.5171 173.163 39.0952C177.98 39.0952 182.746 39.0952 187.512 39.0952C190.485 39.044 193.918 38.4806 195.661 35.8684C197.762 32.5391 197.403 28.4928 197.813 24.7537C197.454 21.0147 197.762 16.9171 195.661 13.5879C194.021 11.1293 190.843 10.4635 188.076 10.3611C183.105 10.2586 178.134 10.3098 173.163 10.3098Z" fill="black"/>
<path d="M51.5544 10.0025C58.1652 10.0025 64.7761 10.0025 71.4382 10.0025C71.4382 11.744 71.4382 13.4342 71.4382 15.1757C69.0808 15.1757 66.7747 15.1757 64.4174 15.1757C64.4174 21.5269 64.4174 27.8781 64.4174 34.2294C66.7747 34.2294 69.0808 34.2294 71.4382 34.2294C71.4382 35.9196 71.4382 37.6611 71.4382 39.4025C64.8273 39.4025 58.2165 39.4025 51.5544 39.4025C51.5031 37.6611 51.5031 35.9708 51.5544 34.2294C53.9117 34.2294 56.2179 34.2294 58.5752 34.2294C58.5752 27.8781 58.5752 21.5269 58.5752 15.1757C56.2179 15.1757 53.9117 15.1757 51.5544 15.1757C51.5544 13.4342 51.5544 11.744 51.5544 10.0025Z" fill="black"/>
<path d="M130.321 10.0025C138.418 9.95131 146.566 9.95131 154.663 10.0025C154.663 13.1781 154.663 16.3538 154.663 19.5806C152.921 19.5806 151.127 19.5806 149.385 19.5806C149.385 18.0952 149.385 16.6611 149.385 15.1757C146.207 15.1757 143.03 15.1757 139.853 15.1757C139.853 17.3781 139.853 19.5806 139.853 21.783C142.415 21.783 144.977 21.783 147.54 21.783C147.54 23.422 147.54 25.0611 147.54 26.7001C144.977 26.7001 142.415 26.7001 139.853 26.7001C139.853 29.2099 139.853 31.7196 139.853 34.2294C143.133 34.1781 146.361 34.2294 149.641 34.2294C149.641 32.5391 149.641 30.9001 149.641 29.2099C151.435 29.2099 153.228 29.2099 155.022 29.2099C155.022 32.5903 155.022 36.022 155.022 39.4025C146.771 39.4025 138.572 39.4025 130.321 39.4025C130.27 37.6611 130.321 35.9708 130.321 34.2294C131.653 34.2294 132.934 34.2294 134.216 34.2294C134.216 27.8781 134.216 21.5269 134.216 15.1757C132.934 15.1757 131.602 15.1757 130.321 15.1757C130.321 13.4342 130.321 11.744 130.321 10.0025Z" fill="black"/>
<path d="M96.8568 15.022C100.495 15.0732 104.185 14.9196 107.824 15.0732C109.259 16.0464 108.951 18.0952 109.002 19.5806C108.951 20.9635 108.9 23.1659 107.055 23.2684C103.673 23.422 100.239 23.2684 96.8055 23.3196C96.8568 20.6049 96.8568 17.7879 96.8568 15.022Z" fill="black"/>
<path d="M178.852 15.022C181.927 15.022 185.053 15.022 188.127 15.022C189.511 15.022 191.1 15.6879 191.51 17.0708C192.483 19.8367 192.073 22.8586 192.176 25.7269C192.073 28.0318 192.33 30.4391 191.356 32.5903C190.69 33.9732 188.999 34.3318 187.615 34.3318C184.694 34.3318 181.773 34.3318 178.852 34.3318C178.852 27.9293 178.852 21.4757 178.852 15.022Z" fill="black"/>
</svg>
