<svg width="329" height="49" viewBox="0 0 329 49" fill="none" xmlns="http://www.w3.org/2000/svg">
<g clip-path="url(#clip0_2001_2544)">
<path fill-rule="evenodd" clip-rule="evenodd" d="M6.18527 18.2749C6.8351 16.5149 7.72861 15.134 8.8658 14.1187C9.01472 14.051 9.17717 14.0239 9.33963 13.9968C9.50209 13.9833 9.89469 13.9698 10.531 13.9698C10.883 13.9698 11.1808 13.9968 11.4516 14.0375C11.7223 14.0916 11.9931 14.1864 12.2774 14.3218C12.5617 14.4707 12.9001 14.6602 13.2792 14.9174L8.44612 18.7622L9.58332 19.6693V32.4762C8.35136 31.8806 7.32246 30.9194 6.64556 29.728C5.6979 28.0899 5.22407 25.8832 5.22407 23.135C5.21053 21.6458 5.53544 20.0213 6.18527 18.2749ZM5.73851 13.3606C6.02281 13.3606 6.38834 13.4147 6.8351 13.5095C7.28185 13.6042 7.68799 13.699 8.06706 13.7938C5.4136 14.9716 3.35582 16.9075 1.90725 19.6287C0.648214 22.0249 -0.00161201 24.6919 0.011926 27.413C0.011926 30.8923 1.21681 33.8706 3.64012 36.3481C6.06343 38.8256 9.01472 40.0711 12.4805 40.0711C15.8243 40.0711 18.6673 38.7849 20.9688 36.2263C23.2703 33.6676 24.4345 30.6486 24.4345 27.1693C24.1232 27.9004 23.7576 28.5096 23.365 28.997C22.8641 29.5926 22.2955 30.1477 21.6863 30.6351C21.2125 31.0412 20.7793 31.3526 20.4002 31.5556C20.0211 31.7587 19.5338 31.9889 18.9246 32.2461V15.1611C19.6827 14.8497 20.2919 14.5248 20.7522 14.1864C21.2125 13.8615 21.7134 13.3741 22.2549 12.7378C23.6493 11.1945 24.421 9.46161 24.5835 7.56629C23.5681 8.22965 22.6611 8.71702 21.8488 9.04193C21.0365 9.35331 20.1294 9.56991 19.1276 9.66468C18.9652 9.66468 18.7486 9.67822 18.4643 9.70529C17.3541 9.70529 15.7025 9.27208 13.5093 8.40565C11.3162 7.53921 9.58332 7.106 8.31074 7.106C5.8062 7.106 3.80258 8.2838 2.28632 10.6123C0.932512 12.6972 0.242073 15.1747 0.242073 18.0582C0.431605 17.1783 0.891898 16.3389 1.62295 15.5402C2.16447 14.9445 2.78722 14.4301 3.47766 14.0239C4.15456 13.5907 4.91269 13.3606 5.73851 13.3606ZM28.8344 39.8274L32.9635 35.2244L30.8786 33.0448V20.7117L32.07 19.913L35.3868 22.431V38.7037C35.3868 39.6243 35.3327 40.4095 35.2244 41.0593C35.1296 41.6685 34.8724 42.2507 34.4933 42.738L33.329 44.1866C32.801 44.8364 32.1512 45.3509 31.366 45.7299C32.95 45.5675 34.2496 45.2155 35.2514 44.6604C36.2668 44.1054 37.3092 43.2254 38.3787 42.0341C39.1639 41.1406 39.7596 40.2606 40.1522 39.3806C40.5583 38.4736 40.8156 37.5124 40.9374 36.5376V18.3019L39.5159 18.3967L35.0619 15.4048L31.8398 18.0582L30.7974 17.4897V8.47333L29.8498 6.42909L25.6259 10.5582V33.9383L24.3398 35.4546L28.8344 39.8274ZM42.9681 34.6559L50.6036 39.4889L57.8599 31.8535L53.9204 34.6559L49.0873 31.1901V27.9681L57.7246 21.5104L52.2281 14.1051L43.4555 20.2243V33.5999L42.9681 34.6559ZM68.3519 10.8019V19.6693C67.7156 19.737 67.2012 19.8453 66.8086 20.0077C66.416 20.1702 65.9963 20.4409 65.5495 20.82C64.277 21.8083 63.6542 23.0673 63.6542 24.6106C63.6407 25.098 63.7084 25.5718 63.8438 26.0321C64.2905 25.6531 64.7237 25.3959 65.1434 25.274C65.5766 25.1522 66.1046 25.0845 66.7409 25.0845C67.0523 25.0845 67.3095 25.1251 67.499 25.1792C67.6886 25.2469 67.9729 25.3688 68.3519 25.5583V34.2768L74.9043 40.8698L80.9288 34.7506L88.1852 40.8698L98.7583 30.6215V13.0763L92.2059 8.05366L87.3729 12.4129L80.7798 8.05366L74.9043 12.9815V10.0979C74.9043 9.15024 74.2274 8.08073 72.8601 6.87585C72.4539 6.59155 72.0613 6.29371 71.6958 5.99588C71.3303 5.69804 71.1137 5.26483 71.0595 4.70977C71.0054 4.26301 70.9783 3.81626 70.9648 3.35597C70.9648 2.28646 71.3303 1.42003 72.0613 0.797281C71.7906 0.743129 71.5198 0.716053 71.2491 0.702515C69.8276 0.702515 68.5685 1.29819 67.4855 2.47599C66.3889 3.66734 65.8474 4.98053 65.8474 6.44263C65.8474 6.65924 65.8745 6.97061 65.9422 7.34968C66.2129 8.89301 67.0117 10.0437 68.3519 10.8019ZM100.031 34.8995L105.906 39.0286L110.171 34.9943L115.248 38.5548L119.607 33.8571H118.091L116.155 31.8535V17.9635L115.112 18.153L110.184 14.0239L100.843 20.468V34.0737L100.031 34.8995ZM128.325 14.9445C127.73 14.6602 127.161 14.2947 126.647 13.875L118.916 19.3308V28.5367L119.634 29.1053H124.237L118.267 39.4889C119.187 38.7037 119.891 38.1757 120.406 37.9185C121.123 37.5665 121.922 37.3905 122.734 37.3905C123.75 37.3905 124.562 37.5124 125.198 37.7425C125.834 37.9727 126.484 38.3923 127.148 39.0016L134.729 33.0313V23.6901L134.16 23.1215H129.084V22.6476L133.592 14.7279C133.118 15.0122 132.739 15.1747 132.455 15.2288C131.994 15.283 131.534 15.31 131.074 15.2965H130.072C129.463 15.31 128.867 15.1882 128.325 14.9445ZM140.347 39.164L144.517 34.5205L142.432 32.3409V20.0077L143.569 19.1954L146.94 21.7541V37.9727C146.954 38.7579 146.9 39.5431 146.778 40.3283C146.669 40.9375 146.412 41.5061 145.993 42.007C145.735 42.3184 145.397 42.7787 144.95 43.3879C144.382 44.0512 143.691 44.5928 142.906 44.9989C144.354 44.8771 145.654 44.5251 146.778 43.9429C147.901 43.3608 148.957 42.4944 149.932 41.3572C150.663 40.5043 151.232 39.6108 151.638 38.6766C152.044 37.7425 152.315 36.7813 152.45 35.8066V17.5844L151.069 17.7333L146.561 14.7414L143.339 17.3543L142.297 16.7857V7.80997L141.39 5.72512L137.125 9.85421V33.2885L135.839 34.7506L140.347 39.164ZM163.159 11.1403L158.894 7.67459L155.429 11.4652L159.03 14.7414L163.159 11.1403ZM156.471 21.8489V34.7506L155.564 36.1315H157.175L160.871 39.2588L164.756 35.6983L169.738 39.7326L174.098 34.8995L172.717 33.1531V21.0637L173.854 20.4951L176.372 23.2433V35.0891L180.785 38.9339L185.05 34.1008H183.06L181.922 32.2461V19.3444L182.491 18.153L181.354 18.3967L176.995 14.931L172.73 19.3444L167.748 15.4048L163.619 20.0077H165.23L166.611 21.6187V33.4645L163.863 34.4122L162.103 33.0313V19.7505L162.671 18.9382L157.744 15.283L153.709 19.5474L155.09 19.9806L156.471 21.8489ZM241.747 34.3309L240.38 32.571V20.4816L241.517 19.913L244.035 22.6612V34.5611L248.448 38.3517L252.713 33.5187H250.723L249.586 31.664V18.7622L250.154 17.625L249.017 17.8146L244.658 14.3488L240.393 18.7622L235.411 14.8227L231.282 19.4256H232.893L234.274 21.0366V32.9365L232.568 35.2109L237.835 38.6766L241.747 34.3309ZM185.97 34.4257C186.607 34.4257 187.175 34.5069 187.703 34.6694C188.231 34.8318 188.732 35.1026 189.247 35.4952C189.747 35.8878 190.127 36.2669 190.357 36.6324C190.587 36.9979 190.79 37.4988 190.952 38.1216L188.488 41.303L185.876 44.8094C186.539 44.4303 187.108 44.2002 187.581 44.1189C188.055 44.0377 188.746 43.9971 189.666 43.9971C190.736 44.0918 191.656 44.3491 192.414 44.7552C193.173 45.1614 193.863 45.7841 194.499 46.6099C196.016 46.0413 197.776 44.7688 199.793 42.8193C201.81 40.8563 202.812 39.2452 202.812 37.9862C202.812 37.7696 202.582 37.0792 202.121 35.9555C201.661 34.8048 201.431 33.5863 201.431 32.3409V17.5844L194.838 13.4553L186.539 19.3308V33.3697L185.97 34.4257ZM202.338 18.2072H205.086V34.6694L204.423 35.9555H206.034L209.499 38.609L213.953 33.5322H212.004L210.718 32.1513V18.5321L213.52 15.0663H210.718V6.00942L205.073 11.2757V14.8768L202.338 18.2072ZM214.333 34.4257L220.208 38.5954L230.456 31.4338V17.4897L229.414 17.7333L224.473 13.5636L215.131 20.0077V33.627L214.333 34.4257ZM262.474 10.8966V15.31C261.648 15.31 260.958 15.3913 260.389 15.5673C259.82 15.7432 259.279 16.0817 258.751 16.5826C258.223 17.0835 257.925 17.6792 257.83 18.3425C257.735 19.0059 257.681 19.8723 257.681 20.9554C257.681 21.4021 257.668 21.7 257.627 21.8624C258.318 20.7523 259.292 20.292 260.524 20.4816C261.35 20.6034 262 20.9554 262.474 21.524V28.8751C261.025 29.6333 259.753 30.6351 258.683 31.867C257.478 33.2885 256.666 34.7506 256.26 36.2804C256.801 35.8607 257.37 35.4817 257.966 35.1703C258.439 34.9266 259.103 34.6965 259.956 34.4392C260.267 34.3445 260.633 34.2362 261.052 34.1279C261.458 34.0196 261.932 33.9654 262.474 33.9654V48.1397L268.688 43.063L270.773 44.5792V36.5106L273.426 37.4176L282.388 31.2037V10.328L276.648 5.72512L270.773 10.653V8.05366L269.635 7.106V11.2757L268.688 11.9391V7.57983L263.855 3.87041L258.115 9.51576C258.588 9.23146 259.076 9.08255 259.577 9.08255C259.983 9.08255 260.389 9.15024 260.768 9.27208C261.621 9.59699 262.19 10.1385 262.474 10.8966ZM283.201 34.8995L289.076 39.0286L299.365 31.867V17.9635L298.323 18.153L293.341 14.0239L283.999 20.468V34.0737L283.201 34.8995ZM310.426 14.7414C309.816 14.4436 309.221 14.0916 308.666 13.699L300.976 19.1007V28.3065L301.639 28.8751H306.242L300.272 39.2588C300.935 38.6902 301.49 38.2705 301.937 37.9727C302.763 37.4311 303.711 37.1604 304.78 37.1604C305.768 37.1604 306.567 37.2822 307.203 37.5124C307.84 37.7561 308.49 38.1622 309.153 38.7714L316.748 32.8011V23.4599L316.179 22.8913H311.102V22.4175L315.611 14.4978C315.137 14.782 314.758 14.9445 314.473 14.9987C314.189 15.0528 313.729 15.0663 313.093 15.0663H312.104C311.454 15.0663 310.899 14.958 310.426 14.7414ZM316.87 18.4373H319.618V34.8995L318.954 36.1856H320.565L323.977 38.8391L328.485 33.7623H326.536L325.25 32.3815V18.7758L327.998 15.31H325.25V6.2531L319.631 11.5194V15.1205L316.87 18.4373ZM106.475 18.8705L110.171 21.6187V32.6658L108.98 33.9519L106.461 31.7723L106.475 18.8705ZM198.304 38.3111C199.062 38.8526 199.441 39.5295 199.441 40.3554C199.441 40.7344 199.4 41.0187 199.346 41.2083C199.156 41.4926 199.007 41.6821 198.913 41.7768C198.655 42.0341 198.331 42.1965 197.965 42.2507C197.559 42.3184 197.017 42.1153 196.354 41.655C195.691 41.1947 194.689 40.9646 193.362 40.9646C192.509 40.9646 191.738 41.0458 191.034 41.2083C190.343 41.3707 189.612 41.6415 188.854 42.0205L195.785 33.478V34.5746C195.785 35.2109 195.84 35.7254 195.948 36.145C196.056 36.5512 196.3 36.9573 196.679 37.3364C197.22 37.6613 197.762 37.9997 198.304 38.3111ZM192.184 18.3019L195.785 20.9554V31.6775L194.743 32.8147L192.184 30.256V18.3019ZM49.0873 26.6007V19.6693L52.553 24.0285L49.0873 26.6007ZM130.343 18.7758L127.121 24.5159H124.697V18.3019C125.645 18.8976 126.674 19.209 127.784 19.209C128.664 19.1954 129.517 19.0601 130.343 18.7758ZM220.777 18.3967L224.473 21.1991V32.2461L223.295 33.5322L220.777 31.2984V18.3967ZM125.591 27.9681H129.056V34.0873C128.569 33.9113 128.068 33.7759 127.567 33.6811C127.229 33.6405 126.552 33.6134 125.51 33.6134C124.9 33.5999 124.305 33.6676 123.709 33.803C123.208 33.9248 122.599 34.1414 121.908 34.4257L125.591 27.9681ZM268.688 15.0663L269.635 14.2541V41.3301L268.688 40.7615V15.0663ZM270.773 13.5501L273.67 11.6954L275.755 13.2116V31.0412C274.766 30.4726 274.238 30.1748 274.144 30.1342L273.101 29.7957C272.329 29.6062 271.544 29.4166 270.773 29.2271V13.5501ZM17.3541 15.6349C17.6655 15.6349 17.9227 15.6079 18.1123 15.5402V32.8011C16.9209 33.3968 15.6077 33.7082 14.2675 33.7082C13.4823 33.7082 12.6835 33.6134 11.8983 33.4239C11.1131 33.2344 10.4904 32.9771 10.0436 32.6658L15.4453 27.2641V15.4048C15.6754 15.5266 15.9191 15.6079 16.1763 15.6214C16.4471 15.6349 16.6231 15.6485 16.7179 15.6485L17.3541 15.6349ZM289.658 18.8705L293.354 21.6187V32.6658L292.217 33.9519L289.658 31.7723V18.8705ZM74.8908 14.3624L76.6507 12.9815L80.306 16.6774V33.7082L78.8304 35.2244L74.8908 31.4338V14.3624ZM311.184 18.8705C311.59 18.8028 311.996 18.6945 312.361 18.5321L309.139 24.2722H306.716V18.0582C307.65 18.6539 308.733 18.9653 309.843 18.9653C310.331 18.9653 310.778 18.9247 311.184 18.8705ZM307.623 27.7379H311.089V33.8571C310.602 33.6811 310.101 33.5457 309.6 33.451C309.261 33.3968 308.584 33.3833 307.528 33.3833C306.919 33.3697 306.31 33.4374 305.728 33.5728C305.132 33.7353 304.536 33.9383 303.968 34.1956L307.623 27.7379ZM87.3593 14.3624L89.0787 12.9815L92.7745 16.6774V33.7082L91.2583 35.2244L87.3729 31.4338L87.3593 14.3624Z" fill="black"/>
</g>
<defs>
<clipPath id="clip0_2001_2544">
<rect width="329" height="48" fill="white" transform="translate(0 0.702515)"/>
</clipPath>
</defs>
</svg>
