<svg width="100" height="75" viewBox="0 0 100 75" fill="none" xmlns="http://www.w3.org/2000/svg">
<path fill-rule="evenodd" clip-rule="evenodd" d="M17.4041 62.8694C17.0377 61.0881 15.5809 60.6164 13.9505 60.4648C8.68378 59.9757 7.74897 63.9208 7.74897 65.5879C7.74897 68.4376 8.57972 70.7958 13.7509 70.7958C14.7043 70.7958 17.3374 69.8118 17.3374 68.2136H24.7746C24.4749 72.9544 16.5214 74.0911 13.053 74.0911C5.86578 74.0911 -0.287109 72.7503 0.0103558 65.6524C0.222427 60.5859 4.99827 57.0316 14.4974 57.2532C19.7929 57.3771 24.8786 59.0318 24.9007 62.87L17.4041 62.8694ZM91.8937 62.8694C91.5283 61.0881 90.0698 60.6164 88.44 60.4648C83.1727 59.9757 82.239 63.9208 82.239 65.5879C82.239 68.4376 83.0698 70.7958 88.2409 70.7958C89.1944 70.7958 91.8264 69.8118 91.8264 68.2136H99.2641C98.9661 72.9544 91.0109 74.0911 87.5414 74.0911C80.3542 74.0911 74.2007 72.7503 74.4993 65.6524C74.7114 60.5859 79.4883 57.0316 88.9852 57.2532C94.2813 57.3771 99.3676 59.0318 99.3897 62.87L91.8937 62.8694ZM26.228 57.592H35.8826L44.12 69.1682H44.1862V57.592H50.3741V73.6658H41.125L32.4832 62.0896H32.4154V73.6658H26.228V57.592ZM52.2839 57.592H64.0106C69.6471 57.592 72.9616 59.1704 72.9616 61.554C72.9616 62.9622 71.5744 64.7006 68.4805 65.2124V65.2576C72.205 65.4799 73.5815 67.841 73.5815 69.2559C73.5815 72.0892 70.3484 73.6664 64.0451 73.6664H52.2839V57.592ZM59.0724 63.8365H61.0167C64.0111 63.8365 65.5997 63.6035 65.5997 62.3565C65.5997 61.0213 64.2786 60.5751 61.5833 60.5751H59.073L59.0724 63.8365ZM59.0724 70.297H61.0167C64.6253 70.297 65.9497 69.9181 65.9497 68.6723C65.9497 67.3359 64.2786 66.8897 61.5833 66.8897H59.073L59.0724 70.297Z" fill="black"/>
<path fill-rule="evenodd" clip-rule="evenodd" d="M90.9803 54.9651C89.3985 55.6653 87.6476 55.9769 85.7825 55.9769L11.0436 55.918C6.81748 55.5878 2.66711 52.1008 1.48686 47.9323C0.230837 43.7638 1.44897 39.4585 4.20929 36.42C6.8746 33.6738 10.3011 32.5252 14.1082 32.9527C10.529 30.5176 9.02528 26.4849 9.53991 22.1609C10.0155 18.4024 12.7374 14.7395 16.2216 13.2409C20.2006 11.4482 25.2252 12.4226 28.3475 15.4413C27.7005 13.2409 27.3578 10.0847 28.2531 7.82543C29.3185 4.26094 32.7829 1.0861 36.305 0.345264C41.0073 -0.667587 45.4811 1.10533 48.1832 5.1375C48.6978 5.897 49.0026 6.75433 49.4019 7.55285C50.7552 3.69542 54.6562 0.500782 58.6171 0.0919095C62.7092 -0.434027 66.574 1.31966 69.1443 4.76709C71.1423 7.63089 71.8271 11.8966 70.5338 15.3446H70.6865C73.6555 12.6765 78.1486 11.7027 81.9749 13.1826C85.6299 14.39 88.7323 18.2853 89.2283 22.123C89.7797 26.3695 88.3325 30.0895 85.1163 32.8368C89.9895 32.5444 94.6154 35.1351 96.6146 39.6728C98.3665 43.6281 97.8536 48.9254 94.8829 52.1398C93.684 53.3483 92.4071 54.3612 90.9803 54.9651Z" fill="white"/>
<path fill-rule="evenodd" clip-rule="evenodd" d="M83.0609 32.9533L55.4187 51.4385L64.7278 29.3108L69.1451 19.0058C70.9344 15.6754 74.3021 13.5525 77.978 13.4936C81.4995 13.4936 84.6217 15.1885 86.6011 18.2271C88.6392 21.2656 88.7529 26.2332 86.7147 29.3108C85.8025 30.7517 84.4504 32.0371 83.0609 32.9533Z" fill="black"/>
<path fill-rule="evenodd" clip-rule="evenodd" d="M69.2971 15.5001L55.6284 47.8152L55.0188 44.2898L50.9075 17.7984C50.735 16.1816 51.4012 14.8181 52.6945 13.9223L54.6563 12.754C54.7711 12.3445 54.1999 12.2082 53.933 12.0719L50.088 12.0329C49.8409 8.21508 51.516 4.74842 54.7513 2.66447C57.2651 1.02728 61.0914 0.599183 63.8902 1.92364C67.5265 3.40418 70.0566 7.28083 70.1143 11.2344C70.0956 12.6951 69.8485 14.1955 69.2971 15.5001Z" fill="black"/>
<path fill-rule="evenodd" clip-rule="evenodd" d="M43.0454 47.9323L29.586 15.5392C28.1383 12.0719 28.7479 7.51384 31.2226 4.70828C33.8687 1.76756 37.5995 0.520583 41.4456 1.51477C44.7007 2.31272 47.7466 5.42989 48.5469 8.76025C48.9274 10.0072 48.8698 11.5064 48.794 12.8699L43.0454 47.9323Z" fill="black"/>
<path fill-rule="evenodd" clip-rule="evenodd" d="M14.2803 31.7843C11.5195 29.3888 10.2827 26.1936 10.6819 22.4922C11.0817 18.7524 14.0326 15.0907 17.5542 13.9613C21.1712 12.8314 25.1112 13.7272 27.7392 16.4349C28.8431 17.4868 29.5285 18.7332 30.0991 20.0192L43.1022 51.4968L14.2803 31.7843Z" fill="black"/>
<path fill-rule="evenodd" clip-rule="evenodd" d="M11.326 54.7808C7.72923 54.3719 4.95647 52.4338 3.26613 49.1357C1.55372 45.8065 1.99879 41.0827 4.30103 38.1307C6.80969 35.1249 10.4392 33.6127 14.0965 34.3547C15.5872 34.595 16.837 35.2363 18.0121 35.9749L45.9948 54.7887L11.326 54.7808Z" fill="black"/>
<path fill-rule="evenodd" clip-rule="evenodd" d="M87.2953 54.7808C90.8937 54.3719 93.6642 52.4338 95.3562 49.1357C97.0681 45.8065 96.623 41.0827 94.3213 38.1307C91.8127 35.1249 88.1826 33.6127 84.5253 34.3547C83.0352 34.595 81.786 35.2363 80.6097 35.9749L52.6282 54.7887L87.2953 54.7808Z" fill="black"/>
</svg>
