<svg width="168" height="49" viewBox="0 0 168 49" fill="none" xmlns="http://www.w3.org/2000/svg">
<g clip-path="url(#clip0_2001_2609)">
<path d="M13.5 11.2025H23.64C26.625 11.2025 28.95 11.7995 30.57 12.9965C32.208 14.1935 33.03 15.9095 33.03 18.1565C33.03 19.4405 32.7363 20.5535 32.148 21.4865C31.56 22.4315 30.693 23.1785 29.541 23.7335C31.131 24.2615 32.349 25.0985 33.201 26.2445C34.047 27.3905 34.467 28.7825 34.467 30.4145C34.467 32.0255 34.056 33.4115 33.237 34.5545C32.418 35.7125 31.248 36.6065 29.727 37.2365C28.209 37.8665 26.397 38.1815 24.267 38.1815H13.497L13.5 11.2025ZM0 48.7025H48V0.702515H0V48.7025ZM23.13 15.7025C26.043 15.7025 27.51 16.7735 27.51 18.9125C27.51 20.0195 27.138 20.8835 26.391 21.4985C25.644 22.1165 24.561 22.4225 23.151 22.4225H19.011V15.7025H23.13ZM23.826 26.6525H18.966V33.9425H23.736C25.374 33.9425 26.637 33.6335 27.516 33.0185C28.398 32.4005 28.839 31.5155 28.839 30.3575C28.839 27.8915 27.162 26.6675 23.799 26.6675L23.826 26.6525Z" fill="black"/>
<path d="M73.5 11.2025H83.64C86.625 11.2025 88.95 11.7995 90.57 12.9965C92.208 14.1935 93.03 15.9095 93.03 18.1565C93.03 19.4405 92.7363 20.5535 92.148 21.4865C91.56 22.4315 90.69 23.1785 89.541 23.7335C91.131 24.2615 92.349 25.0985 93.201 26.2445C94.047 27.3905 94.467 28.7825 94.467 30.4145C94.467 32.0255 94.056 33.4115 93.237 34.5545C92.418 35.7125 91.248 36.6065 89.727 37.2365C88.209 37.8665 86.397 38.1815 84.267 38.1815H73.497L73.5 11.2025ZM60 48.7025H108V0.702515H60V48.7025ZM83.13 15.7025C86.043 15.7025 87.51 16.7735 87.51 18.9125C87.51 20.0195 87.138 20.8835 86.391 21.4985C85.644 22.1165 84.561 22.4225 83.151 22.4225H79.011V15.7025H83.13ZM83.826 26.6525H78.966V33.9425H83.736C85.374 33.9425 86.637 33.6335 87.516 33.0185C88.398 32.4005 88.839 31.5155 88.839 30.3575C88.839 27.8915 87.162 26.6675 83.799 26.6675L83.826 26.6525Z" fill="black"/>
<path d="M150.6 37.9025C152.073 37.5455 153.369 37.0565 154.5 36.4415V31.3115C152.139 32.7665 149.55 33.4955 146.76 33.4955C144.93 33.4955 143.37 33.1505 142.08 32.4605C140.796 31.7705 139.818 30.7655 139.146 29.4305C138.471 28.1105 138.135 26.5115 138.135 24.6305C138.135 22.7555 138.483 21.1505 139.182 19.8605C139.881 18.5525 140.883 17.5535 142.182 16.8635C143.49 16.1735 145.071 15.8285 146.922 15.8285C148.269 15.8285 149.553 16.0079 150.762 16.3655C151.98 16.7225 153.111 17.2475 154.152 17.9375V12.6875C153.009 12.0965 151.77 11.6465 150.432 11.3375C149.097 11.0285 147.681 10.8755 146.172 10.8755C144.012 10.8755 142.062 11.1965 140.322 11.8385C138.582 12.4805 137.082 13.4045 135.852 14.6135C134.607 15.8225 133.653 17.2715 132.993 18.9635C132.333 20.6525 132.003 22.5335 132.003 24.6335C132.003 26.7815 132.321 28.7135 132.957 30.4235C133.593 32.1395 134.505 33.5735 135.702 34.7735C136.896 35.9585 138.357 36.8645 140.082 37.4945C141.81 38.1245 143.742 38.4395 145.902 38.4395C147.528 38.4395 149.082 38.2601 150.552 37.9025H150.6ZM168 48.6425H120V0.642517H168V48.6425Z" fill="black"/>
</g>
<defs>
<clipPath id="clip0_2001_2609">
<rect width="168" height="48" fill="white" transform="translate(0 0.702515)"/>
</clipPath>
</defs>
</svg>
